<?xml version="1.0" standalone="no"?>
<svg viewBox="0 0 200 200" xmlns="http://www.w3.org/2000/svg">
  <path fill="#C63182" d="M29.3,-41.8C41.2,-43.8,56.5,-42.6,67.1,-35.1C77.8,-27.6,83.9,-13.8,81.1,-1.6C78.3,10.6,66.6,21.2,57.9,32C49.2,42.8,43.3,53.8,34.1,57.6C25,61.4,12.5,57.9,2.9,52.8C-6.7,47.8,-13.3,41.2,-25.8,39.4C-38.3,37.5,-56.7,40.4,-67.4,34.6C-78.1,28.9,-81.2,14.4,-76.7,2.6C-72.3,-9.3,-60.3,-18.6,-53.5,-31.2C-46.8,-43.8,-45.3,-59.8,-37.2,-60.1C-29.2,-60.3,-14.6,-44.8,-3,-39.6C8.7,-34.5,17.3,-39.7,29.3,-41.8Z" transform="translate(100 100)" />
</svg>
